<svg width="1024" height="1024" viewBox="0 0 1024 1024" fill="none" xmlns="http://www.w3.org/2000/svg">
<path d="M303.636 198.76C361.57 198.76 393.193 224.541 436.329 265.56C436.329 265.56 452.204 280.021 478.218 270.298C537.316 252.934 629.901 226.22 691.476 233.843C767.941 243.31 786.345 281.658 799.542 304.566C811.19 325.34 825.056 354.547 830.181 405.48C868.473 436.172 894 485.163 894 536.636C894 604.988 858.597 661.295 800.095 686.223C786.971 763.847 714.576 825.24 634.24 825.24C596.521 825.24 561.459 810.983 533.881 789.132C506.302 810.983 471.93 825.24 434.211 825.24C365.909 825.24 311.771 781.024 287.723 720.526C201.984 714.345 130 643.408 130 554.939C130 506.737 143.433 472.572 175.585 442.008C170.949 407.774 170.095 336.281 177.184 309.438C186.187 246.837 239.371 198.76 303.636 198.76ZM533.01 370.977C504.241 370.977 480.919 396.156 480.919 424.989V511.304C480.919 540.137 504.241 565.316 533.01 565.316C561.779 565.316 585.101 540.137 585.101 511.304V424.989C585.101 396.156 561.779 370.977 533.01 370.977ZM675.566 372.782C646.797 372.782 623.475 396.156 623.475 424.989V511.304C623.475 540.137 646.797 565.316 675.566 565.316C704.335 565.316 727.657 540.137 727.657 511.304V424.989C727.657 396.156 704.335 372.782 675.566 372.782Z" fill="url(#paint0_linear_223_2508)"/>
<path d="M894 536.636C894 485.163 868.473 436.173 830.182 405.481C825.216 356.139 812.047 327.186 800.64 306.538L799.542 304.566C786.346 281.658 767.941 243.31 691.476 233.843C629.901 226.22 537.316 252.934 478.218 270.298L477.006 270.737C451.727 279.568 436.348 265.578 436.329 265.561C393.529 224.861 362.065 199.164 304.989 198.765L303.637 198.76C239.372 198.76 186.187 246.837 177.185 309.438C170.096 336.281 170.949 407.775 175.585 442.008C143.433 472.572 130 506.737 130 554.939L130.013 557.009C131.125 644.512 202.654 714.393 287.724 720.526C311.583 780.551 365.065 824.548 432.612 825.232L434.211 825.24C471.93 825.239 506.303 810.983 533.881 789.132C561.028 810.642 595.427 824.793 632.474 825.23L634.24 825.24C714.576 825.239 786.971 763.847 800.096 686.223C858.597 661.295 894 604.987 894 536.636ZM970.4 536.636C970.4 619.238 932.619 694.209 865.325 737.781C831.566 832.916 737.909 901.64 634.24 901.64C597.962 901.64 563.995 892.96 533.983 878.667C504.288 892.907 470.613 901.64 434.211 901.64C346.876 901.64 277.261 854.07 237.071 789.162C135.104 762.102 54.3239 670.756 53.6045 556.478L53.5996 554.939C53.5996 501.91 66.4515 456.083 96.6592 415.967C95.8942 401.833 95.5359 386.891 95.5879 372.672C95.6743 349.035 96.8321 318.078 102.18 294.571C118.066 197.595 201.465 122.36 303.637 122.36C381.267 122.36 429.649 156.106 470.473 192.964C498.183 184.91 532.965 175.212 568.465 167.88C608.678 159.574 657.257 152.623 700.863 158.022C751.591 164.302 790.13 181.297 819.131 206.308C844.887 228.521 858.889 254.238 864.69 264.573L865.743 266.429L865.965 266.814L866.182 267.201C879.106 290.253 893.847 321.407 902.104 368.079C943.762 411.935 970.4 472.251 970.4 536.636ZM585.097 511.979C584.736 540.529 561.555 565.315 533.011 565.316L532.337 565.312C504.102 564.926 481.281 540.304 480.924 511.979L480.92 511.304V424.989C480.92 396.156 504.242 370.977 533.011 370.977C561.779 370.977 585.101 396.156 585.102 424.989V511.304L585.097 511.979ZM727.657 511.304C727.657 540.137 704.335 565.316 675.566 565.316L674.893 565.312C646.658 564.926 623.837 540.304 623.479 511.979L623.476 511.304V424.989C623.476 396.156 646.798 372.782 675.566 372.782C704.335 372.783 727.657 396.156 727.657 424.989V511.304Z" fill="white"/>
<defs>
<linearGradient id="paint0_linear_223_2508" x1="512" y1="198.76" x2="512" y2="825.24" gradientUnits="userSpaceOnUse">
<stop stop-color="#B251FB"/>
<stop offset="1" stop-color="#DCB2FF"/>
</linearGradient>
</defs>
</svg>
